HIERARCHY
ROOT Hips
{
	OFFSET 0.000000 0.000000 0.000000
	CHANNELS 6 Xposition Yposition Zposition Zrotation Yrotation Xrotation 
	JOINT LHipJoint
	{
		OFFSET 0.000000 0.000000 0.000000
		CHANNELS 3 Zrotation Yrotation Xrotation
		JOINT LeftUpLeg
		{
			OFFSET 1.363060 -1.794630 0.839290
			CHANNELS 3 Zrotation Yrotation Xrotation
			JOINT LeftLeg
			{
				OFFSET 2.448110 -6.726130 0.000000
				CHANNELS 3 Zrotation Yrotation Xrotation
				JOINT LeftFoot
				{
					OFFSET 2.562200 -7.039590 0.000000
					CHANNELS 3 Zrotation Yrotation Xrotation
					JOINT LeftToeBase
					{
						OFFSET 0.157640 -0.433110 2.322550
						CHANNELS 3 Zrotation Yrotation Xrotation
						End Site
						{
							OFFSET 0.000000 0.000000 0.000000
						}
					}
				}
			}
		}
	}
	JOINT RHipJoint
	{
		OFFSET 0.000000 0.000000 0.000000
		CHANNELS 3 Zrotation Yrotation Xrotation
		JOINT RightUpLeg
		{
			OFFSET -1.305520 -1.794630 0.839290
			CHANNELS 3 Zrotation Yrotation Xrotation
			JOINT RightLeg
			{
				OFFSET -2.542530 -6.985550 0.000000
				CHANNELS 3 Zrotation Yrotation Xrotation
				JOINT RightFoot
				{
					OFFSET -2.568260 -7.056230 0.000000
					CHANNELS 3 Zrotation Yrotation Xrotation
					JOINT RightToeBase
					{
						OFFSET -0.164730 -0.452590 2.363150
						CHANNELS 3 Zrotation Yrotation Xrotation
						End Site
						{
							OFFSET 0.000000 0.000000 0.000000
						}
					}
				}
			}
		}
	}
	JOINT LowerBack
	{
		OFFSET 0.000000 0.000000 0.000000
		CHANNELS 3 Zrotation Yrotation Xrotation
		JOINT Spine
		{
			OFFSET 0.028270 2.035590 -0.193380
			CHANNELS 3 Zrotation Yrotation Xrotation
			JOINT Spine1
			{
				OFFSET 0.056720 2.048850 -0.042750
				CHANNELS 3 Zrotation Yrotation Xrotation
				JOINT Neck
				{
					OFFSET 0.000000 0.000000 0.000000
					CHANNELS 3 Zrotation Yrotation Xrotation
					JOINT Neck1
					{
						OFFSET -0.054170 1.746240 0.172020
						CHANNELS 3 Zrotation Yrotation Xrotation
						JOINT Head
						{
							OFFSET 0.104070 1.761360 -0.123970
							CHANNELS 3 Zrotation Yrotation Xrotation
							End Site
							{
								OFFSET 0.000000 0.000000 0.000000
							}
						}
					}
				}
				JOINT LeftShoulder
				{
					OFFSET 0.000000 0.000000 0.000000
					CHANNELS 3 Zrotation Yrotation Xrotation
					JOINT LeftArm
					{
						OFFSET 3.362410 1.200890 -0.311210
						CHANNELS 3 Zrotation Yrotation Xrotation
						JOINT LeftForeArm
						{
							OFFSET 4.983000 -0.000000 -0.000000
							CHANNELS 3 Zrotation Yrotation Xrotation
							JOINT LeftHand
							{
								OFFSET 3.483560 -0.000000 -0.000000
								CHANNELS 3 Zrotation Yrotation Xrotation
								JOINT LeftFingerBase
								{
									OFFSET 0.000000 0.000000 0.000000
									CHANNELS 3 Zrotation Yrotation Xrotation
									JOINT LeftHandIndex1
									{
										OFFSET 0.715260 -0.000000 -0.000000
										CHANNELS 3 Zrotation Yrotation Xrotation
										End Site
										{
											OFFSET 0.000000 0.000000 0.000000
										}
									}
								}
								JOINT LThumb
								{
									OFFSET 0.000000 0.000000 0.000000
									CHANNELS 3 Zrotation Yrotation Xrotation
									End Site
									{
										OFFSET 0.000000 0.000000 0.000000
									}
								}
							}
						}
					}
				}
				JOINT RightShoulder
				{
					OFFSET 0.000000 0.000000 0.000000
					CHANNELS 3 Zrotation Yrotation Xrotation
					JOINT RightArm
					{
						OFFSET -3.136600 1.374050 -0.404650
						CHANNELS 3 Zrotation Yrotation Xrotation
						JOINT RightForeArm
						{
							OFFSET -5.241900 -0.000000 -0.000000
							CHANNELS 3 Zrotation Yrotation Xrotation
							JOINT RightHand
							{
								OFFSET -3.444170 -0.000000 -0.000000
								CHANNELS 3 Zrotation Yrotation Xrotation
								JOINT RightFingerBase
								{
									OFFSET 0.000000 0.000000 0.000000
									CHANNELS 3 Zrotation Yrotation Xrotation
									JOINT RightHandIndex1
									{
										OFFSET -0.622530 -0.000000 -0.000000
										CHANNELS 3 Zrotation Yrotation Xrotation
										End Site
										{
											OFFSET 0.000000 0.000000 0.000000
										}
									}
								}
								JOINT RThumb
								{
									OFFSET 0.000000 0.000000 0.000000
									CHANNELS 3 Zrotation Yrotation Xrotation
									End Site
									{
										OFFSET 0.000000 0.000000 0.000000
									}
								}
							}
						}
					}
				}
			}
		}
	}
}
MOTION
Frames: 5
Frame Time: 0.008333
8.221828 15.731772 -19.259614 12.417090 87.805933 5.694328 12.021864 1.980330 -4.429377 -39.734571 3.621190 9.831399 5.761587 7.566760 22.125809 -2.343736 -17.423797 -32.395807 0.317900 3.624200 10.021800 -9.862158 -5.703688 6.566929 29.663782 18.101725 -32.430763 -13.130965 -15.357763 62.366086 -0.968370 2.813038 -27.666855 -0.153500 -2.524400 6.957300 -6.820680 0.988860 2.370565 8.889721 -1.211551 27.128640 2.237087 2.091858 -10.989208 -9.479998 -3.303639 -25.755304 3.446896 -2.178467 44.030812 3.093900 -1.221700 15.798200 0.482414 1.528844 1.093451 -93.340133 0.264033 22.485266 26.558704 -38.614861 -5.673221 2.389294 4.736489 -5.458267 22.788336 24.697349 7.197300 -7.125000 0.000000 0.000000 -8.543300 51.242600 -1.321900 -1.642253 -0.934756 0.142173 89.670188 -1.732971 12.183050 -22.878347 31.943345 -4.043888 -1.171969 0.270128 -6.831483 -17.273543 15.012067 -4.194500 7.125000 0.000000 0.000000 7.723100 -14.820200 5.542200 
8.310961 15.709150 -19.297710 111.692567 89.566763 105.953116 12.790245 0.581474 -5.440235 -40.905249 3.447951 10.070447 5.749756 7.334307 21.897851 -2.288706 -17.466232 -32.388618 0.306300 3.558000 9.836400 -9.185169 -7.648120 7.980409 27.869748 18.631196 -35.495122 -12.632550 -15.171872 60.100149 -0.714420 3.521568 -27.132857 -0.105900 -2.098600 5.778300 -5.566525 0.256914 1.869527 7.431416 -1.551117 26.973064 2.316118 1.470503 -11.146316 -9.446033 -3.523076 -25.935433 3.969482 -2.646338 44.153110 3.142200 -1.307800 15.832700 0.650956 1.263236 1.119034 -92.839217 -0.005024 23.379658 26.663595 -38.739240 -5.732194 2.501052 4.743562 -6.106809 23.905136 24.633748 7.563800 -7.125000 0.000000 0.000000 -7.596800 51.393500 -1.202200 -1.319131 -1.278334 0.022010 90.032692 -1.534759 11.083410 -22.896741 32.015616 -4.035871 -1.117315 0.315956 -5.799465 -16.908564 15.164590 -4.143700 7.125000 0.000000 0.000000 7.937000 -14.717900 5.716100 
8.415748 15.713855 -19.291286 -47.046576 88.917809 -53.062697 13.404233 1.108867 -5.411644 -39.941434 4.257150 10.861757 5.655515 7.268216 21.556617 -2.521801 -18.026266 -32.281786 0.350900 3.806000 10.531400 -9.021730 -7.146536 7.849158 29.573241 18.651980 -34.662308 -12.176309 -14.467477 56.970618 -0.568683 4.178724 -26.764948 -0.093900 -1.976200 5.439900 -4.759848 0.455854 2.183205 8.385914 -1.510127 26.929348 1.797573 1.610835 -11.140782 -9.640002 -3.551232 -25.825311 4.009025 -2.646665 44.051639 3.169100 -1.310900 15.803200 0.544255 1.380543 1.101774 -92.752369 -0.065560 23.637656 26.643612 -38.750976 -5.749115 2.628106 4.705417 -6.221343 24.911694 24.383051 7.839400 -7.125000 0.000000 0.000000 -6.671000 51.352600 -1.047800 -1.449834 -1.179566 0.068204 90.082149 -1.447983 11.121802 -23.039772 32.231190 -4.115999 -1.186210 0.304760 -6.275623 -17.706499 15.239037 -4.367600 7.125000 0.000000 0.000000 7.442700 -14.572100 5.377100 
8.530490 15.726252 -19.266853 36.533067 88.832465 29.928046 11.022415 0.836398 -5.196758 -38.614236 5.282947 11.730067 5.540413 7.199230 20.830942 -2.814607 -18.608614 -31.946033 0.418300 4.151200 11.502400 -12.074966 -7.085624 7.241631 32.187874 18.377650 -32.428516 -11.782060 -13.642190 53.739374 -0.419440 4.948087 -26.623275 -0.088400 -1.918100 5.279500 -6.791965 0.545102 2.565546 8.911473 -1.671143 27.145627 1.984197 1.722153 -11.108835 -9.702158 -3.414215 -25.662521 3.910297 -2.424841 43.803652 3.208700 -1.257300 15.711100 0.526333 1.472937 1.072333 -92.975093 -0.080126 23.356165 26.688525 -38.826584 -5.770515 2.575307 4.686476 -5.761355 24.343110 24.427284 7.661600 -7.125000 0.000000 0.000000 -7.153900 51.296000 -1.114300 -1.508484 -1.110429 0.097237 89.757415 -1.435051 12.744877 -23.406254 32.765931 -4.366025 -1.429382 0.071926 -10.126392 -20.058627 14.132623 -4.645200 7.125000 0.000000 0.000000 5.989100 -15.373300 4.210400 
8.641611 15.713041 -19.254999 6.237457 87.662117 -0.230247 12.076982 1.962893 -4.896641 -38.924179 5.912943 12.180274 5.379200 7.035161 19.976649 -2.938209 -18.757873 -31.564099 0.358400 3.846100 10.644100 -11.381443 -6.207354 7.005159 32.462968 18.638891 -32.178915 -11.507869 -12.875622 51.068255 -0.202726 5.898662 -26.518178 -0.043100 -1.339200 3.682600 -7.063537 0.798673 2.266935 9.597198 -1.633023 27.052084 2.272494 2.022828 -10.813705 -9.905545 -3.231283 -25.536963 3.615869 -2.029017 43.676946 3.246000 -1.183200 15.648900 0.401368 1.659564 1.068139 -93.326787 -0.013263 22.714441 26.754267 -38.897764 -5.789523 2.493136 4.657769 -5.189726 23.520654 24.423463 7.383800 -7.125000 0.000000 0.000000 -7.832400 51.151900 -1.193200 -1.693116 -0.891219 0.160176 89.384704 -1.114065 12.384364 -23.240833 32.499182 -4.222602 -1.226564 0.213530 -7.827070 -17.954316 14.819879 -4.321000 7.125000 0.000000 0.000000 7.295400 -14.923500 5.213700 
